<svg width="155" height="161" viewBox="0 0 155 161" fill="none" xmlns="http://www.w3.org/2000/svg">
<path d="M57.3155 58.6149C55.3935 58.6149 53.6797 57.7795 51.4681 57.7795C48.5659 57.7795 46.2401 58.8021 43.5323 59.4038C39.1268 60.3828 34.8708 64.7071 32.9048 68.6391C30.2515 73.9457 31.5174 77.9255 35.5965 82.0046C41.3347 87.7427 49.679 86.1813 57.0835 86.1813C64.9925 86.1813 68.8205 85.722 73.8368 80.1483C76.4306 77.2664 74.7806 69.7535 74.0689 66.5507C72.2977 58.5803 56.5029 61.1209 50.6328 61.1209" stroke="black" stroke-width="3" stroke-linecap="round"/>
<path d="M52.3035 69.4744C50.1743 69.2082 48.4981 68.1749 46.6417 70.4954C44.3521 73.3573 47.3031 75.4685 49.7974 75.3218C51.5124 75.2209 55.6876 71.6519 54.1598 70.1241C53.0067 68.971 47.9883 68.9159 47.2914 70.3097" stroke="black" stroke-width="3" stroke-linecap="round"/>
<path d="M102.424 63.627C94.2303 63.627 84.0467 64.7763 84.0467 74.9042C84.0467 78.07 83.9349 83.5356 85.903 85.9957C88.2636 88.9465 99.8658 87.0167 103.213 87.0167C113.936 87.0167 123.308 87.9165 123.308 74.6721C123.308 68.7106 123.351 66.7351 117.414 64.88C111.185 62.9334 103.888 63.627 97.4122 63.627" stroke="black" stroke-width="3" stroke-linecap="round"/>
<path d="M103.26 70.3098C101.463 70.5344 96.8616 75.3387 100.336 76.1108C104.747 77.0911 105.884 74.7228 104.095 71.1451" stroke="black" stroke-width="3" stroke-linecap="round"/>
<path d="M68.1751 87.0167C67.828 89.7933 62.4164 92.7931 60.4713 94.3492C58.4923 95.9324 58.2717 96.1426 57.1299 98.7115C56.5811 99.9463 56.5554 104.026 57.5012 105.209C60.2787 108.681 67.6754 107.065 71.7021 107.065C74.3045 107.065 77.5314 107.653 79.8699 106.415C81.7589 105.415 81.7468 102.785 83.2113 102.053" stroke="black" stroke-width="3" stroke-linecap="round"/>
<path d="M79.0346 97.0409C83.7379 97.0409 88.4822 96.4848 89.9405 101.589C91.2183 106.061 88.9945 108.35 84.882 110.406" stroke="black" stroke-width="3" stroke-linecap="round"/>
<path d="M40.6086 125.443C45.6235 125.443 50.0567 120.431 54.8095 120.431C56.9897 120.431 59.2675 122.806 61.4923 122.937C64.2176 123.097 66.8385 123.104 69.8458 122.937C74.9402 122.654 80.045 119.771 84.6964 123.958C86.7727 125.826 99.562 126.99 100.754 124.607" stroke="black" stroke-width="3" stroke-linecap="round"/>
<path d="M54.8095 142.985C58.8657 142.985 62.6798 145.491 66.8757 145.491C70.7042 145.491 74.795 144.656 78.1993 144.656" stroke="black" stroke-width="3" stroke-linecap="round"/>
<path d="M25.5724 58.6149C25.4078 60.0957 24.1211 62.7262 23.252 63.8126C22.4154 64.8583 23.0663 68.5597 23.0663 69.8921C23.0663 74.3472 23.0663 78.8024 23.0663 83.2576C23.0663 87.0064 27.5813 89.7493 25.1547 94.1171C23.7927 96.5687 23.0663 102.964 23.0663 105.812C23.0663 109.891 22.231 113.72 22.231 117.924C22.231 121.569 20.9361 127.959 22.4166 131.29C23.307 133.293 22.4492 135.693 23.484 137.555C24.6306 139.619 25.7186 141.819 26.5933 144.006C27.9902 147.498 31.459 149.866 34.1115 151.988C35.1004 152.779 38.5184 152.174 39.7733 152.174C42.1825 152.174 44.2993 153.009 46.8737 153.009C50.8216 153.009 55.5617 153.037 59.4039 153.891C67.4643 155.682 74.1455 158.856 82.7936 158.856C87.2408 158.856 91.5078 158.27 95.7415 158.021C97.5382 157.915 104.975 157.317 106.415 156.165C109.353 153.815 112.077 153.009 113.934 148.832C115.203 145.977 115.79 136.519 115.79 139.644" stroke="black" stroke-width="3" stroke-linecap="round"/>
<path d="M21.3956 32.7191C16.4619 32.7191 20.5945 43.5717 23.5304 45.2493C24.5712 45.8441 28.8653 46.9319 28.9138 47.7554C29.0958 50.8504 27.281 53.2105 24.737 54.6238C22.7664 55.7186 21.1851 57.2634 20.5603 59.4502C19.7101 62.4259 22.1613 53.326 22.2774 51.7001C22.6312 46.7474 24.1807 40.0297 22.0454 35.2252C21.6758 34.3938 21.3611 29.749 23.0663 29.749C24.179 29.749 25.5724 34.0264 25.5724 34.8539C25.5724 40.076 24.8644 43.7184 23.0199 48.6371C21.0355 53.9288 16.1772 57.3209 14.0632 62.606C13.4245 64.2026 11.1444 65.605 13.5063 63.5806C17.5598 60.1061 23.0755 57.5426 25.8972 52.7675C29.6593 46.4008 30.3141 41.3767 27.0574 35.2252C26.5699 34.3043 25.1797 30.6755 25.5724 31.5589C27.61 36.1435 29.7674 40.6955 31.8375 45.2957C33.8245 49.7113 33.9739 50.9473 32.2552 55.4591C28.8969 64.2746 41.5219 50.5956 43.3931 48.962C47.3719 45.4884 53.1055 40.7624 54.0206 35.2716C54.6719 31.3637 51.8927 37.433 50.5864 38.9842C46.5282 43.8033 41.7621 47.7554 35.4109 47.7554C31.9415 47.7554 31.4198 47.9923 31.4198 44.414C31.4198 40.1059 36.9242 35.8 40.8871 35.2716C46.3012 34.5497 52.9431 34.946 57.1299 38.7522C62.1136 43.2828 66.2038 41.7157 67.2933 35.1788C67.9864 31.0204 67.4013 33.7963 66.69 36.2462C64.7263 43.0101 63.5266 53.1509 58.1509 58.2436C54.6962 61.5166 46.7769 56.0182 45.203 53.1851C44.1015 51.2024 44.7269 48.2504 43.7644 46.0847C42.8357 43.9951 41.4436 43.7454 39.9589 42.5577C38.5977 41.4687 53.6143 33.3096 56.0625 32.7655C64.5093 30.8885 70.2576 46.5327 77.5495 48.7764C80.7225 49.7527 80.2795 47.4753 80.7517 44.8781C81.5345 40.5728 83.2113 36.3856 83.2113 31.8838C83.2113 29.2537 83.2113 23.5604 83.2113 29.5634C83.2113 36.0232 83.2717 43.8465 81.355 50.0758C80.1785 53.8993 75.6567 49.1515 73.8369 47.6626C68.4286 43.2376 62.1922 38.7477 56.109 35.2716C52.9951 33.4922 49.9685 32.7191 46.4561 32.7191C44.6167 32.7191 41.5499 32.1192 41.444 30.2131C40.8068 18.7448 31.9543 37.9959 30.9557 38.5666C28.0095 40.2502 31.0055 32.3089 31.2342 31.4197C32.6461 25.9288 28.9862 27.4906 25.3867 28.9137C19.6414 31.1851 21.6076 29.1244 24.273 25.2474C27.8809 19.9995 35.1179 17.8636 38.9379 13.0885C39.9185 11.8628 48.5652 20.7362 49.0549 21.3027C50.4141 22.8752 54.0878 30.357 54.1598 30.2131C55.9887 26.5554 58.5207 22.9549 59.7288 19.0287C60.2007 17.4951 60.8841 16.4854 60.2393 18.9359C59.3034 22.4923 60.3223 26.3776 61.0746 29.8882C62.0033 34.2222 62.9394 29.2623 63.3486 27.7071C64.0935 24.8764 65.6017 22.1322 65.669 19.168C65.689 18.2884 65.4751 12.2682 67.5254 14.7128C69.3505 16.8889 70.7653 19.336 72.3518 21.674C73.8874 23.9369 74.8578 24.4919 74.8578 27.2894C74.8578 28.4032 74.8578 29.517 74.8578 30.6308C74.8578 32.1936 75.0182 28.7011 75.2755 28.0319C76.4776 24.9064 77.0972 18.7521 81.5406 18.5182C84.9014 18.3414 84.0467 25.2097 84.0467 27.3358C84.0467 31.5064 83.2113 43.9902 83.2113 39.8196C83.2113 36.1752 87.2719 30.8656 89.4764 28.1711C92.1469 24.9072 91.541 27.3182 90.9151 30.2131C90.1858 33.586 90.6659 37.2492 90.0797 40.7013C89.9819 41.2776 88.709 45.8346 89.2444 44.2284C90.9489 39.1149 92.6839 33.8363 94.0708 28.6352C94.9081 25.4956 98.2476 17.3688 98.2476 24.8298C98.2476 28.5342 99.0074 32.1744 99.0829 35.8749C99.1097 37.1897 98.2884 42.4129 99.0829 43.2074C99.8101 43.9346 99.593 41.2129 99.9183 40.2373C100.429 38.704 101.044 37.2101 101.589 35.6893C102.718 32.539 104.598 29.7564 105.951 26.6861C108.065 21.8895 108.61 20.123 111.149 25.201C113.28 29.4634 114.119 33.0133 114.119 37.7312C114.119 46.9861 118.296 24.0325 118.296 34.9467C118.296 41.6202 118.434 49.9855 116.579 56.4801C116.425 57.0168 116.625 51.3308 116.625 49.8902C116.625 48.4557 118.614 40.1731 116.625 42.2792C113.384 45.7112 110.118 49.5703 105.766 51.7465C99.186 55.0363 105.864 38.6594 102.842 38.6594C102.248 38.6594 100.449 41.4037 99.9183 41.908C97.4407 44.2617 94.4831 46.8398 91.5648 48.5907C90.4209 49.277 87.2374 52.8374 86.3671 51.0968C85.654 49.6706 84.9998 47.8605 84.882 46.2703C84.7971 45.124 83.6683 38.839 81.9583 41.119C78.7336 45.4186 74.5043 48.9765 71.0988 53.1387C67.8919 57.0583 70.5762 50.1001 71.1452 48.962C73.6699 43.9126 76.9121 39.9811 81.8191 37.0815C83.7778 35.924 87.2984 34.2737 89.5228 35.6893C92.3848 37.5105 97.0133 46.8272 99.5006 46.8272C102.388 46.8272 116.317 26.6529 118.482 32.9048C118.899 34.111 119.979 41.6068 120.384 41.7687C121.377 42.1659 124.78 34.0795 125.35 33.1832C126.482 31.4044 126.787 27.716 124.143 30.2131C121.433 32.7726 120.106 27.8741 118.482 25.5723C116.09 22.1846 115.485 21.7683 111.567 23.5767C109.459 24.5496 96.3092 32.024 94.9062 28.8673C93.5984 25.9249 93.3567 23.5252 93.2355 20.3746C93.0361 15.1894 87.8449 20.5204 85.903 21.8596C82.2574 24.3738 78.1992 29.1565 78.1992 21.906C78.1992 15.6985 67.0977 26.5519 65.2514 28.1247C63.7641 29.3917 49.3554 40.6326 48.9621 36.8959C48.7133 34.532 46.2995 32.6017 43.95 32.7191C39.4865 32.9423 36.0151 35.5958 32.6728 38.1953C29.993 40.2796 32.802 34.22 33.4618 33.1832C34.3462 31.7934 41.2728 16.2979 43.1147 17.2188C44.6328 17.9779 46.0091 22.5794 47.7091 23.9016C50.4192 26.0094 54.8264 22.07 56.7587 20.653C58.0089 19.7362 62.1441 14.3793 62.3276 17.6829C62.4764 20.3606 62.8327 24.4694 64.184 26.8717C64.742 27.8637 69.996 23.3451 71.0988 22.6486C75.7348 19.7206 76.6152 18.7669 77.7816 24.3657C77.9417 25.1344 79.2406 32.6625 79.8699 32.3479C83.2881 30.6388 86.3256 26.1569 89.7085 23.9016C91.8779 22.4553 92.9096 21.3157 94.9062 23.1126C97.4824 25.4312 98.7622 29.0758 99.9183 32.2551C100.643 34.2492 103.567 29.6446 104.281 28.5424C105.768 26.2433 108.495 34.0014 109.107 35.2252C110.695 38.4006 111.829 42.9369 114.63 38.8914C116.761 35.8135 120.209 32.5083 121.591 29.0529C122.279 27.3335 119.678 35.8849 120.988 34.5755C122.918 32.6447 123.772 24.1412 123.772 26.8717C123.772 28.9034 121.924 32.3088 121.22 34.3434C120.369 36.8015 117.91 42.0481 116.208 38.9842C114.923 36.6716 115.053 32.1364 113.098 30.3987C112.161 29.5653 108.48 35.4357 108.272 36.0605" stroke="black" stroke-width="3" stroke-linecap="round"/>
<path d="M124.143 76.9925C125.588 76.812 129.831 73.9459 131.012 73.0014C133.098 71.3326 139.391 71.9805 142.103 71.9805C150.453 71.9805 153.38 82.7348 153.38 89.5227C153.38 92.5436 153.238 99.2257 151.06 101.403C148.345 104.119 144.551 105.056 141.639 107.483C135.175 112.87 127.485 106.153 127.485 99.5469" stroke="black" stroke-width="3" stroke-linecap="round"/>
<path d="M128.32 92.0288C130.111 90.0144 130.119 86.1813 133.75 86.1813C136.124 86.1813 138.873 85.1805 141.686 85.346C143.291 85.4404 144.206 91.8505 142.939 92.8641C141.399 94.0959 138.263 94.6978 137.509 96.2055" stroke="black" stroke-width="3" stroke-linecap="round"/>
<path d="M121.637 41.908C123.759 42.1732 126.423 46.3167 127.485 47.941C129.721 51.3605 129.991 52.8637 129.991 56.9442C129.991 59.5505 131.003 62.2899 130.826 65.2977C130.753 66.54 129.155 71.5627 129.155 71.1451" stroke="black" stroke-width="3" stroke-linecap="round"/>
<path d="M124.143 36.8959C127.215 36.8959 134.167 36.8021 134.167 40.7014C134.167 47.2476 135.524 52.7672 132.961 59.3574C132.464 60.6361 131.661 64.1623 131.661 60.7033C131.661 57.4392 131.661 54.1752 131.661 50.9112C131.661 48.2292 130.082 39.4037 132.079 37.4064C133.143 36.3428 134.647 43.1633 135.003 43.7643C136.203 45.7901 138.087 49.6195 138.344 51.9321C138.549 53.777 138.344 54.8291 138.344 56.9442C138.344 62.4809 134.581 63.1375 132.914 67.8037C132.333 69.4332 132.237 71.6055 133.75 72.8158C134.847 73.6936 133.744 67.5204 133.518 66.5043C132.354 61.2686 133.332 54.8264 133.332 49.4261C133.332 47.5779 133.433 46.103 132.682 44.414C131.727 42.2653 130.17 42.1538 129.202 40.7014C128.008 38.9108 123.556 50.6321 123.308 51.5609C122.525 54.4971 122.293 57.9133 121.22 60.7033C120.973 61.345 119.313 66.0609 119.131 62.7916C118.884 58.3505 117.461 53.6848 117.461 49.0548C117.461 47.2869 118.359 43.4359 115.79 43.5787C113.824 43.6879 111.571 44.8394 109.571 45.2029C103.318 46.3399 96.7526 47.7554 90.3118 47.7554C85.3996 47.7554 84.7529 43.3463 82.7936 39.8196C80.0019 34.7945 81.5393 31.0498 76.1109 36.4782C70.1589 42.4302 67.0933 44.9579 58.615 42.0936C53.6751 40.4247 51.4681 36.8051 51.4681 31.8838C51.4681 30.0356 51.5691 28.5607 50.8184 26.8717C49.3077 23.4726 49.8163 27.5514 50.3079 27.6607C56.6358 29.0669 62.0364 23.5375 65.6226 19.3536C67.4197 17.257 68.0263 8.56787 70.4955 13.5062C72.4649 17.4451 75.4649 21.3331 79.6843 17.4973C83.3829 14.1349 87.6685 11.6068 91.3791 8.30846C92.4505 7.35618 91.3388 19.8504 94.9062 17.8685C96.7753 16.8302 101.311 7.03355 102.471 12.2532C103.188 15.4797 104.637 19.7993 105.766 22.9734C106.001 23.6363 107.883 30.9488 108.225 29.749C109.43 25.5311 109.999 17.6122 113.469 14.5272C114.29 13.798 116.563 20.6816 116.625 21.0243C117.29 24.6789 119.133 29.0845 121.637 31.8838C123.388 33.8405 122.938 33.3423 123.958 31.0485C124.939 28.8394 125.038 26.0965 126.232 23.948C128.463 19.9316 127.556 16.5506 123.262 19.7713C120.158 22.099 116.748 23.9287 113.469 26.0364C110.938 27.6639 109.633 25.5504 107.436 23.9944C103.403 21.1376 99.5985 18.1185 95.7415 14.9912C91.7724 11.773 88.7527 6.98991 84.5571 4.08532C82.6789 2.78502 77.9131 8.51098 76.9926 9.28303C76.0744 10.0531 70.799 16.391 70.0314 16.4763C66.4739 16.8716 69.7738 5.81855 65.669 10.1648C63.4975 12.464 62.3152 15.2817 60.0072 17.4973C58.2213 19.2118 58.9862 13.104 58.9862 11.8819C58.9862 8.16935 57.8993 8.56476 55.6449 11.6498C53.4516 14.6512 50.3107 17.5416 47.3378 19.7713C45.6801 21.0146 45.9871 17.6743 45.6671 15.5945C45.3081 13.2611 45.6207 10.6742 45.6207 8.30846C45.6207 0.250199 44.5649 15.9297 47.2914 13.5062C50.0592 11.0459 52.8215 4.02414 56.8979 7.19467C59.1945 8.98092 59.8654 11.791 60.8426 14.5272C62.6129 19.484 62.5188 18.7196 66.1331 15.9658C69.3955 13.4802 73.5429 10.0326 76.0645 6.8234C78.0181 4.33695 79.0525 3.7261 80.5196 6.8234C81.6873 9.28841 82.5202 12.1316 83.2577 14.7128C83.4863 15.5129 86.6922 10.2107 87.2024 9.32944C91.7204 1.52557 92.0315 12.3267 94.1172 15.4553C94.6896 16.3139 95.4792 13.9031 96.1128 13.0885C97.2367 11.6435 97.8137 9.90431 99.0829 8.49409C99.371 8.17401 101.987 4.24825 102.378 5.61679C103.112 8.18468 107.868 21.4045 108.272 21.0243C110.119 19.2857 111.158 16.7804 112.773 14.8056C114.882 12.2279 114.558 13.7684 115.604 16.3835C116.26 18.0236 116.024 25.1553 117.878 25.8972C118.206 26.0283 122.176 18.8617 122.473 18.5183C123.821 16.9569 124.979 14.097 124.979 17.3116C124.979 20.7841 125.814 24.2991 125.814 27.8927C125.814 29.9347 125.814 34.0186 125.814 34.0186C125.814 34.0186 125.775 32.5943 125.814 31.8838C125.885 30.6062 126.109 30.1415 125.86 31.8838C125.686 33.1072 124.076 41.2733 123.494 40.2373C121.074 35.9355 119.515 31.7545 116.068 28.0319C108.122 19.4499 101.214 9.2879 88.2234 11.6498C82.0625 12.77 76.3554 15.7413 70.5883 18.1006C67.1153 19.5213 66.1192 20.7517 64.184 18.3326C63.0936 16.9697 63.5119 13.6108 62.5133 11.8355C61.8964 10.7388 55.9106 17.239 55.2272 18.1006C51.9951 22.1759 48.4436 26.5549 44.7854 30.2131C42.998 32.0004 41.9718 28.5624 41.0263 27.1966C40.621 26.6111 37.883 20.3999 37.0816 20.5602C34.6357 21.0494 33.5684 26.4331 32.6728 28.1247C32.2999 28.8292 29.5615 35.2614 29.7491 31.8838C29.9026 29.1202 31.1188 25.8438 31.8375 23.1127C32.0385 22.3489 33.5107 17.7757 34.3435 17.7757C35.1816 17.7757 34.7612 24.2231 34.7612 25.0154C34.7612 26.1937 36.418 21.052 36.8496 20.189C38.2225 17.443 40.2472 13.542 43.3003 12.4852C49.7288 10.2599 53.9588 17.745 56.4338 22.695C57.4562 24.7399 59.2544 33.1144 61.4923 27.8927C64.2563 21.4432 69.6721 15.5931 74.4402 10.5361C75.4366 9.47928 81.8113 0.460844 82.7936 2.22899C84.515 5.3274 85.3673 9.17054 85.7174 12.6708C85.865 14.1473 94.1151 1.46467 96.5769 2.8323C99.3069 4.34897 100.546 13.0094 100.707 15.5017C101.143 22.2586 101.456 28.9189 101.589 35.6893C101.673 39.9835 101.983 38.7641 102.842 36.0141C103.723 33.1935 104.93 29.826 104.93 26.8717" stroke="black" stroke-width="3" stroke-linecap="round"/>
<path d="M114.119 143.82C115.844 143.605 119.142 138.257 120.338 136.72C122.379 134.095 124.28 130.886 125.025 127.531C125.792 124.081 128.123 120.639 128.32 117.089C128.52 113.495 128.32 109.83 128.32 106.23" stroke="black" stroke-width="3" stroke-linecap="round"/>
<path d="M18.8896 71.9804C15.6268 71.5726 6.50311 61.2407 3.01801 67.3396C-0.386791 73.298 5.38857 82.2893 10.9074 85.2996C16.2721 88.2258 20.4758 91.3292 22.8807 97.0409C24.3127 100.442 21.4419 104.606 20.6067 107.529C19.9911 109.684 18.0543 115.989 18.0543 113.748" stroke="black" stroke-width="3" stroke-linecap="round"/>
<path d="M13.0422 82.0046C13.0422 75.8005 18.8896 78.1233 18.8896 83.6753" stroke="black" stroke-width="3" stroke-linecap="round"/>
</svg>
