<svg width="320" height="233" viewBox="0 0 320 233" fill="none" xmlns="http://www.w3.org/2000/svg">
<path d="M7.71407 6.15383C7.71407 24.3903 10.3504 42.3557 10.3504 60.4427C10.3504 75.1704 10.3504 89.8981 10.3504 104.626C10.3504 120.222 4.93373 136.959 7.76289 152.519C10.1869 165.851 8.59284 180.623 8.59284 194.212C8.59284 200.299 8.59284 206.385 8.59284 212.471C8.59284 216.478 7.92359 224.133 10.5457 227.41C14.97 232.941 26.8186 230.242 33.0033 230.242C46.1293 230.242 59.1993 230.215 72.2554 229.314C112.561 226.535 153.378 229.303 193.771 227.655C210.704 226.963 227.522 226.727 244.496 226.727C264.646 226.727 284.612 229.363 304.741 229.363C310.08 229.363 318.196 231.892 317.923 224.774C317.66 217.942 313.544 210.583 311.966 203.879C309.903 195.109 311.771 186.285 311.771 177.515C311.771 166.384 311.771 155.253 311.771 144.122C311.771 139.005 311.401 134.236 310.941 129.183C310.295 122.071 312.14 113.916 312.601 106.774C313.275 96.3251 312.65 85.6165 312.65 75.1379C312.65 58.0017 312.65 40.8655 312.65 23.7294C312.65 19.1509 315.191 7.42587 311.966 4.20099C309.788 2.02248 300.805 3.28405 297.711 2.834C290.276 1.75265 282.18 2.63871 274.667 2.63871C259.207 2.63871 243.747 2.63871 228.287 2.63871C216.544 2.63871 204.896 3.51749 193.136 3.51749C178.696 3.51749 164.102 3.23928 149.734 4.83566C117.527 8.41422 84.1786 6.15383 51.7506 6.15383C35.0626 6.15383 18.3191 5.27505 1.56262 5.27505" stroke="black" stroke-width="3" stroke-linecap="round"/>
</svg>
