<svg width="212" height="99" viewBox="0 0 212 99" fill="none" xmlns="http://www.w3.org/2000/svg">
<path d="M24.8495 12.8601C24.8495 17.2041 24.8495 21.5481 24.8495 25.8921C24.8495 27.7852 24.3133 30.6585 25.0908 32.408C26.6642 35.9481 26.2828 34.7568 29.6761 35.7264C31.9354 36.3719 39.5858 38.4293 41.9841 36.5107C44.4233 34.5593 50.9134 33.3301 50.9134 38.381C50.9134 40.1054 51.3989 48.8692 52.5424 49.784C55.0744 51.8096 52.2746 59.5281 51.9994 61.7299C51.7833 63.4582 44.4169 66.0739 42.7684 66.0739C38.2039 66.0739 33.855 66.3329 29.1935 66.0739C26.2441 65.91 20.8478 61.3812 20.5055 58.4719C20.2732 56.4973 19.5473 46.1959 17.7905 46.5863C14.0267 47.4227 9.82001 48.9124 6.38756 50.6286C1.25492 53.1949 2.04358 55.8167 2.04358 61.1869C2.04358 64.9534 3.98338 69.4965 4.21557 73.6758C4.35745 76.2297 6.04897 84.0477 8.01655 85.6218C14.0718 90.466 18.2688 94.3688 25.4528 96.4214C31.1003 98.035 44.8036 96.8084 48.9827 93.4651C52.0381 91.0208 57.0224 92.6464 59.6013 89.4228C61.1584 87.4764 65.2505 85.8853 67.4446 83.6911C71.821 79.3148 69.3753 65.1616 69.3753 59.0149C69.3753 54.3484 67.682 50.595 67.2033 46.526C66.9014 43.9599 64.2596 37.2207 62.3163 35.666C59.7583 33.6196 68.8924 35.351 72.0903 34.6404C75.6496 33.8494 80.5291 34.1451 80.2352 29.15C80.1216 27.2187 75.3859 21.9416 74.2623 19.9191C72.5805 16.892 70.8615 10.632 70.4613 7.43015C69.7094 1.41534 49.7036 7.24578 46.5694 7.43015C42.546 7.66682 38.4502 9.60214 34.0804 9.60214C31.9084 9.60214 29.7365 9.60214 27.5645 9.60214C25.7561 9.60214 25.4915 11.9961 23.7635 12.8601" stroke="black" stroke-width="3" stroke-linecap="round"/>
<path d="M69.3753 55.2139C69.3753 49.8789 78.3654 45.4332 82.9502 44.4143C89.1478 43.0371 94.4464 42.182 101.412 42.182C115.086 42.182 122.589 54.5602 122.589 67.1599C122.589 70.1274 123.426 73.4102 120.417 75.0032C118.015 76.2749 115.639 77.4761 113.901 79.6488C110.221 84.2491 105.012 84.6476 100.326 87.2508C92.8426 91.4083 68.2893 93.8925 68.2893 81.2778" stroke="black" stroke-width="3" stroke-linecap="round"/>
<path d="M93.2672 57.3859C91.1408 57.6222 84.7155 62.6703 84.5792 64.9879C84.398 68.0683 87.4521 73.4615 91.0952 73.6758C96.0237 73.9658 98.6971 70.8455 98.6971 66.0739C98.6971 61.2665 97.1537 64.622 94.5945 62.5746C92.8781 61.2015 92.438 59.5579 90.0092 59.5579" stroke="black" stroke-width="3" stroke-linecap="round"/>
<path d="M108.471 47.612C107.988 43.2636 105.852 33.2063 103.282 29.9947C99.7442 25.572 102.311 15.7484 98.9385 11.5328C94.2405 5.66036 105.962 2.00018 109.557 2.00018C114.423 2.00018 114.987 1.89378 114.987 6.88716C114.987 10.1476 116.82 13.2363 117.159 16.1181C117.55 19.4447 120.75 21.3566 121.563 24.2027C122.344 26.9333 125.427 30.6478 126.692 33.494C127.825 36.0451 128.019 39.8876 128.019 42.725C128.019 44.2897 128.048 45.275 129.346 46.2846C129.929 46.7377 130.578 43.5989 131.036 43.0267C132.854 40.7539 129.707 35.882 134.052 34.6404C136.886 33.8307 139.096 30.5938 142.137 30.236C144.142 30.0002 148.75 26.0133 150.825 28.6071C152.515 30.7197 154.337 32.7261 156.014 34.8214C159.248 38.8648 159.217 48.0091 159.513 53.0419C159.843 58.6491 166.799 63.9623 167.115 69.3319C167.431 74.7005 164.535 80.9185 158.427 81.2778C154.954 81.4821 153.234 83.3674 150.342 79.6488C148.274 76.9895 148.845 73.6749 148.653 70.4179C148.499 67.8026 136.868 60.2979 134.776 61.9712C130.056 65.7473 138.879 73.6367 138.879 78.0198C138.879 86.5339 131.37 82.724 126.692 86.4665C125.318 87.5651 118.51 88.2573 116.676 87.7335C115.612 87.4294 114.879 82.3096 112.815 81.2778" stroke="black" stroke-width="3" stroke-linecap="round"/>
<path d="M156.255 42.182C156.255 37.312 156.356 32.2237 157.401 27.5211C158.963 20.493 162.853 23.22 167.356 19.6174C170.225 17.3227 177.975 17.2744 177.975 22.0911C177.975 26.7301 180.147 31.0823 180.147 35.666C180.147 40.0348 180.147 37.2028 180.147 34.58C180.147 32.3506 182.011 30.8671 184.008 30.2964C188.393 29.0436 193.985 29.15 198.609 29.15C202.885 29.15 204.039 37.236 204.039 40.553C204.039 44.7077 206.197 50.5507 207.357 54.6106C208.573 58.8681 209.75 64.5464 209.469 69.3319C209.195 73.9907 201.065 73.6758 198.066 73.6758C188.146 73.6758 195.155 56.2999 182.862 56.2999C174.243 56.2999 187.782 73.0917 183.405 78.5628C182.377 79.847 173.184 82.2623 171.459 82.3638C169.167 82.4986 167.664 84.5358 165.486 84.5358C162.243 84.5358 162.894 82.6107 161.685 80.1918" stroke="black" stroke-width="3" stroke-linecap="round"/>
</svg>
